<?xml version="1.0" encoding="utf-8"?>
<!-- Generator: Adobe Illustrator 25.2.1, SVG Export Plug-In . SVG Version: 6.00 Build 0)  -->
<svg version="1.1" id="Layer_1" xmlns="http://www.w3.org/2000/svg" xmlns:xlink="http://www.w3.org/1999/xlink" x="0px" y="0px"
	 viewBox="0 0 322 284" style="enable-background:new 0 0 322 284;" xml:space="preserve">
<style type="text/css">
	.st0{fill:#FFFFFF;}
</style>
<g>
	<path class="st0" d="M305.26,39.85c-75.16-0.02-150.32-0.04-225.47,0.07c-3.65,0.01-5.29-0.8-5.86-4.62
		c-0.9-6.01-2.47-11.94-3.74-17.91C68.3,8.48,61.71,3.05,52.57,3.02C39.41,2.99,26.25,2.99,13.1,3.03
		C5.43,3.06,0.48,7.48,0.38,14.27c-0.11,6.92,4.97,11.58,12.8,11.62c10.3,0.04,20.62,0.16,30.93-0.09c3.43-0.08,4.61,1.04,5.3,4.31
		c7.68,36.9,15.5,73.77,23.3,110.64c4.85,22.95,9.73,45.9,14.61,68.83c1.95,9.15,8.16,14.49,17.47,14.5
		c57.39,0.05,114.78,0.02,172.16-0.04c6.8-0.01,11.54-4.56,11.83-10.89c0.28-6.33-4.08-11.18-10.83-11.91
		c-2.01-0.22-4.06-0.15-6.1-0.15c-52.64-0.01-105.27-0.07-157.91,0.08c-3.96,0.02-5.67-1.12-6.07-4.97
		c-0.28-2.79-1.07-5.53-1.78-9.04h5.18c55.49,0,110.98,0.01,166.46,0c12.26,0,17.72-4.53,20.27-16.59
		c7.77-36.88,15.57-73.76,23.39-110.63C323.93,48.01,317.47,39.85,305.26,39.85z M296.3,67.46c-6.46,30.63-13.02,61.25-19.33,91.91
		c-0.77,3.78-2.05,5-6.01,4.99c-55.05-0.15-110.11-0.13-165.16-0.02c-3.47,0.01-4.89-0.88-5.62-4.45
		c-5.71-27.88-11.68-55.7-17.55-83.55c-0.91-4.31-1.76-8.64-2.69-13.28h217.02C296.69,64.84,296.56,66.17,296.3,67.46z"/>
	<path class="st0" d="M272.83,259.89c0.01,13.18-10.87,24.11-23.99,24.09c-13.75-0.02-24.22-10.39-24.33-24.06
		c-0.1-13.43,10.74-24.18,24.3-24.12C262.02,235.86,272.82,246.7,272.83,259.89z"/>
	<path class="st0" d="M152.61,259.95c0.01,13.44-10.49,23.93-24.03,24c-13.44,0.07-24.03-10.4-24.15-23.89
		c-0.11-13.36,10.5-24.17,23.81-24.27C141.8,235.7,152.61,246.41,152.61,259.95z"/>
</g>
</svg>
